<svg id="Group_632" data-name="Group 632" xmlns="http://www.w3.org/2000/svg" width="98.996" height="99" viewBox="0 0 98.996 99">
  <path id="Path_1286" data-name="Path 1286" d="M361,161.5a49.329,49.329,0,0,1-3.986,19.492l-.164.378a49.58,49.58,0,0,1-53.937,28.886q-.446-.079-.89-.164a49.059,49.059,0,0,1-8.954-2.64q-.705-.283-1.4-.587c-.316-.138-.633-.28-.946-.426A49.5,49.5,0,1,1,361,161.5Z" transform="translate(-262 -112)" fill="#f2c335"/>
  <path id="Path_1287" data-name="Path 1287" d="M418.9,394.921q-.446-.079-.89-.164a203.542,203.542,0,0,0-3.119-29.185,108.284,108.284,0,0,0-5.338-19.414,60.434,60.434,0,0,0-2.793-6.127,31.776,31.776,0,0,0-8.869-10.969l.521-.712a30.625,30.625,0,0,1,7.94,9.091q1.057,1.753,2.03,3.74,1.043,2.126,1.99,4.515.6,1.52,1.167,3.146a114.182,114.182,0,0,1,4.168,16.106q.38,2,.723,4.1A207.688,207.688,0,0,1,418.9,394.921Z" transform="translate(-377.99 -296.667)" opacity="0.2"/>
  <path id="Path_1288" data-name="Path 1288" d="M410.787,618.874c-.316-.138-.633-.28-.946-.426a71.9,71.9,0,0,0-1.9-11.363,37.281,37.281,0,0,0-1.73-5.155,15.468,15.468,0,0,0-4.655-6.52l.521-.71a16.183,16.183,0,0,1,4.868,6.669,45.748,45.748,0,0,1,2.916,10.276C410.32,614.236,410.607,616.738,410.787,618.874Z" transform="translate(-381.122 -524.011)" opacity="0.2"/>
  <circle id="Ellipse_53" data-name="Ellipse 53" cx="4.406" cy="4.406" r="4.406" transform="translate(10.569 23.562)" opacity="0.2"/>
  <circle id="Ellipse_54" data-name="Ellipse 54" cx="4.406" cy="4.406" r="4.406" transform="translate(11.988 61.492)" opacity="0.2"/>
  <path id="Path_1289" data-name="Path 1289" d="M482.3,300.8a19.572,19.572,0,0,0,1.128,10.045,17.837,17.837,0,0,0,3.384-19.09A19.573,19.573,0,0,0,482.3,300.8Z" transform="translate(-449.83 -265.432)" opacity="0.2"/>
  <path id="Path_1290" data-name="Path 1290" d="M336.344,401.83a19.669,19.669,0,0,0,10.081.659,17.946,17.946,0,0,0-18.209-6.658A19.669,19.669,0,0,0,336.344,401.83Z" transform="translate(-318.52 -353.947)" opacity="0.2"/>
  <path id="Path_1291" data-name="Path 1291" d="M344.72,642.173a13.718,13.718,0,0,0,7.071.448,12.5,12.5,0,0,0-12.763-4.667A13.718,13.718,0,0,0,344.72,642.173Z" transform="translate(-327.747 -560.701)" opacity="0.2"/>
  <circle id="Ellipse_55" data-name="Ellipse 55" cx="19.297" cy="19.297" r="19.297" transform="translate(30.1 21.865)" fill="#d0cde1"/>
  <path id="Path_1292" data-name="Path 1292" d="M547.833,458.818s2.412,11.458,2.412,12.664,11.458,6.633,11.458,6.633l10.252-1.809,3.618-10.855s-6.03-9.045-6.03-12.664Z" transform="translate(-505.975 -402.881)" fill="#d0cde1"/>
  <path id="Path_1293" data-name="Path 1293" d="M463.909,526.919l-.164.378a49.58,49.58,0,0,1-53.937,28.886q-.446-.079-.89-.164a49.056,49.056,0,0,1-8.954-2.64q-.705-.283-1.4-.587c-.316-.138-.633-.28-.946-.426a49.44,49.44,0,0,1-8.091-4.727L387.24,541l1.286-.981L391.171,538l2.822-2.154.734-.561,11.073-8.453.817-.624,5.755-4.393h0s6.224,10.141,15.27,7.126a12.474,12.474,0,0,0,8.848-11.661Z" transform="translate(-368.899 -457.929)" fill="#2f2e41"/>
  <path id="Path_1294" data-name="Path 1294" d="M458.583,224.725s6.127-13.275,17.87-10.211,18.38,7.658,18.891,12.253a65.56,65.56,0,0,1-.255,11.488s-1.276-9.445-9.445-7.4-20.933.511-20.933.511l-2.042,18.38s-2.3-3.319-4.85-1.276S450.414,228.809,458.583,224.725Z" transform="translate(-425.921 -199.109)" fill="#2f2e41"/>
  <path id="Path_1295" data-name="Path 1295" d="M385.693,691.646q-.705-.283-1.4-.587c-.316-.138-.633-.28-.946-.426a49.622,49.622,0,0,1-12.827-8.6,17.358,17.358,0,0,1,2.449-2.766h9.046l1.356,4.56Z" transform="translate(-354.628 -596.197)" fill="#2f2e41"/>
  <path id="Path_1296" data-name="Path 1296" d="M853.452,576.32l7.76,1.371a49.489,49.489,0,0,1-8.312,12.97Z" transform="translate(-766.366 -508.323)" fill="#2f2e41"/>
</svg>
