<svg xmlns="http://www.w3.org/2000/svg" width="164.261" height="126.354" viewBox="0 0 164.261 126.354">
  <g id="Group_621" data-name="Group 621" transform="translate(0)">
    <path id="Path_1234" data-name="Path 1234" d="M706.281,279.625c3.524-9.474,11.849-17.661,21.911-18.635a46.574,46.574,0,0,0-7.361,31.117c.515,4.208,1.526,8.835-.743,12.416a10.411,10.411,0,0,1-6.463,4.22,30.92,30.92,0,0,1-7.873.52l-.59.292C703.306,299.618,702.757,289.1,706.281,279.625Z" transform="translate(-596.202 -244.047)" fill="#f0f0f0"/>
    <path id="Path_1235" data-name="Path 1235" d="M732.411,260.5a39.808,39.808,0,0,0-14.789,19.523,17.14,17.14,0,0,0-1.046,5.268,9.831,9.831,0,0,0,1.33,5,20.35,20.35,0,0,1,2.2,4.405,6.021,6.021,0,0,1-.845,4.85,15.642,15.642,0,0,1-4.563,4.233c-1.9,1.312-3.9,2.645-5.07,4.707-.141.25-.521.016-.38-.233,2.028-3.587,6.283-4.889,8.887-7.936a6.1,6.1,0,0,0,1.633-5.111,15.788,15.788,0,0,0-2.152-4.515,10.491,10.491,0,0,1-1.482-4.841,15.848,15.848,0,0,1,.84-5.289,38.622,38.622,0,0,1,5.447-10.772,40.515,40.515,0,0,1,9.777-9.683C732.436,259.943,732.644,260.337,732.411,260.5Z" transform="translate(-600.373 -243.35)" fill="#fff"/>
    <path id="Path_1236" data-name="Path 1236" d="M736.5,308.528a5.972,5.972,0,0,1-2.983-7.135c.088-.273.516-.149.428.124a5.53,5.53,0,0,0,2.789,6.631C736.989,308.277,736.755,308.656,736.5,308.528Z" transform="translate(-618.513 -274.451)" fill="#fff"/>
    <path id="Path_1237" data-name="Path 1237" d="M742.2,364.279a11.511,11.511,0,0,0,6.529-5.268c.142-.249.521-.016.38.233a11.973,11.973,0,0,1-6.805,5.468C742.025,364.8,741.923,364.364,742.2,364.279Z" transform="translate(-625.162 -318.01)" fill="#fff"/>
    <path id="Path_1238" data-name="Path 1238" d="M774.376,286.4a3.381,3.381,0,0,0,3.155.579c.273-.089.375.345.1.433a3.788,3.788,0,0,1-3.492-.633.23.23,0,0,1-.073-.306A.224.224,0,0,1,774.376,286.4Z" transform="translate(-649.337 -263.219)" fill="#fff"/>
    <path id="Path_1239" data-name="Path 1239" d="M755.9,349.637c-.169.06-.338.121-.508.185a44.528,44.528,0,0,0-6.563,3.014c-.164.089-.329.181-.49.274a46.937,46.937,0,0,0-13.133,11.231,45.583,45.583,0,0,0-3.917,5.711c-1.6,2.763-3.116,5.885-5.466,7.9a7.824,7.824,0,0,1-.766.592l-16.038-3.795c-.032-.027-.065-.05-.1-.077l-.647-.122c.053-.107.109-.218.162-.325.03-.062.064-.124.094-.186.021-.041.043-.083.06-.121.007-.014.014-.028.02-.038.017-.039.037-.073.053-.107q.474-.925.963-1.847s0,0,.005-.006a67.024,67.024,0,0,1,8.9-13.111c.105-.118.211-.24.324-.356a43.491,43.491,0,0,1,5.166-4.867,38.433,38.433,0,0,1,3.166-2.261,31.977,31.977,0,0,1,9.167-3.99c6.471-1.676,13.405-1.264,19.114,2.046C755.612,349.464,755.755,349.548,755.9,349.637Z" transform="translate(-599.659 -308.543)" fill="#f0f0f0"/>
    <path id="Path_1240" data-name="Path 1240" d="M756.322,359.075a39.807,39.807,0,0,0-23.562,6.684,17.143,17.143,0,0,0-4.007,3.577,9.832,9.832,0,0,0-1.949,4.793,20.351,20.351,0,0,1-.893,4.844,6.02,6.02,0,0,1-3.6,3.364,15.641,15.641,0,0,1-6.192.632c-2.311-.1-4.71-.239-6.881.706-.263.114-.425-.3-.163-.415,3.778-1.643,7.961-.121,11.873-.986a6.1,6.1,0,0,0,4.381-3.1,15.791,15.791,0,0,0,1-4.9,10.492,10.492,0,0,1,1.731-4.758,15.848,15.848,0,0,1,3.855-3.717,38.619,38.619,0,0,1,10.835-5.321,40.513,40.513,0,0,1,13.637-1.845C756.676,358.646,756.606,359.086,756.322,359.075Z" transform="translate(-600.165 -317.787)" fill="#fff"/>
    <path id="Path_1241" data-name="Path 1241" d="M813.228,357.912a5.973,5.973,0,0,1,1.914-7.493c.234-.165.5.192.267.357a5.53,5.53,0,0,0-1.766,6.974C813.769,358.006,813.354,358.167,813.228,357.912Z" transform="translate(-678.482 -311.568)" fill="#fff"/>
    <path id="Path_1242" data-name="Path 1242" d="M781.017,417.725a11.512,11.512,0,0,0,8.385-.275c.263-.113.426.3.163.415a11.973,11.973,0,0,1-8.725.269C780.569,418.037,780.748,417.629,781.017,417.725Z" transform="translate(-654.372 -362.221)" fill="#fff"/>
    <path id="Path_1243" data-name="Path 1243" d="M863.607,362.551a3.381,3.381,0,0,0,2.17,2.362c.272.093.091.5-.178.408a3.789,3.789,0,0,1-2.407-2.608.23.23,0,0,1,.126-.289.224.224,0,0,1,.289.126Z" transform="translate(-716.672 -320.658)" fill="#fff"/>
    <path id="Path_1244" data-name="Path 1244" d="M282.1,620.384c-9.181-4.229-16.716-13.149-16.927-23.255a46.573,46.573,0,0,0,30.472,9.69c4.235-.2,8.925-.854,12.325,1.678a10.411,10.411,0,0,1,3.719,6.763,30.92,30.92,0,0,1-.076,7.89l.246.611C301.813,624.86,291.284,624.613,282.1,620.384Z" transform="translate(-264.947 -497.963)" fill="#f0f0f0"/>
    <path id="Path_1245" data-name="Path 1245" d="M264.677,596.633a39.808,39.808,0,0,0,18.35,16.221A17.143,17.143,0,0,0,288.2,614.3a9.831,9.831,0,0,0,5.087-.948,20.348,20.348,0,0,1,4.559-1.864,6.02,6.02,0,0,1,4.773,1.209,15.641,15.641,0,0,1,3.876,4.87c1.165,2,2.343,4.093,4.31,5.41.238.16-.023.52-.261.361-3.423-2.293-4.4-6.635-7.242-9.461a6.1,6.1,0,0,0-4.973-2.014,15.786,15.786,0,0,0-4.665,1.8,10.491,10.491,0,0,1-4.939,1.112,15.847,15.847,0,0,1-5.21-1.237,38.623,38.623,0,0,1-10.329-6.245,40.513,40.513,0,0,1-8.917-10.481c-.146-.246.263-.424.408-.18Z" transform="translate(-264.239 -497.5)" fill="#fff"/>
    <path id="Path_1246" data-name="Path 1246" d="M307.6,658.389a5.972,5.972,0,0,1-7.34,2.436c-.265-.108-.11-.526.156-.417a5.53,5.53,0,0,0,6.823-2.28C307.392,657.882,307.752,658.145,307.6,658.389Z" transform="translate(-291.349 -543.966)" fill="#fff"/>
    <path id="Path_1247" data-name="Path 1247" d="M365.113,644.574a11.511,11.511,0,0,0-4.76-6.908c-.238-.161.024-.521.261-.361a11.974,11.974,0,0,1,4.938,7.2c.065.28-.376.349-.44.07Z" transform="translate(-336.772 -528.281)" fill="#fff"/>
    <path id="Path_1248" data-name="Path 1248" d="M288.341,617.046a3.381,3.381,0,0,0,.816-3.1c-.068-.279.372-.347.44-.07a3.788,3.788,0,0,1-.9,3.434.23.23,0,0,1-.311.05A.224.224,0,0,1,288.341,617.046Z" transform="translate(-282.414 -510.478)" fill="#fff"/>
    <path id="Path_1249" data-name="Path 1249" d="M357.972,505.725c.048.173.1.346.146.52a44.517,44.517,0,0,0,2.51,6.772c.076.17.156.342.237.509a46.935,46.935,0,0,0,10.208,13.943,45.571,45.571,0,0,0,5.4,4.337c2.634,1.8,5.633,3.552,7.463,6.047a7.831,7.831,0,0,1,.532.808l-5,15.705c-.029.03-.055.061-.084.091l-.171.636c-.1-.061-.209-.126-.312-.186-.06-.035-.119-.073-.179-.108-.04-.024-.079-.049-.116-.069l-.036-.023c-.037-.02-.07-.042-.1-.061q-.887-.542-1.769-1.1s0,0-.006-.006a67.017,67.017,0,0,1-12.4-9.863c-.11-.114-.223-.229-.331-.35a43.5,43.5,0,0,1-4.463-5.519,38.455,38.455,0,0,1-2.015-3.328,31.975,31.975,0,0,1-3.286-9.442c-1.182-6.579-.248-13.462,3.484-18.9C357.778,506,357.873,505.863,357.972,505.725Z" transform="translate(-331.83 -428.917)" fill="#f0f0f0"/>
    <path id="Path_1250" data-name="Path 1250" d="M369.758,505.294a39.807,39.807,0,0,0,4.885,24,17.143,17.143,0,0,0,3.264,4.266,9.833,9.833,0,0,0,4.632,2.306,20.345,20.345,0,0,1,4.763,1.257,6.02,6.02,0,0,1,3.083,3.839,15.643,15.643,0,0,1,.163,6.222c-.273,2.3-.594,4.678.184,6.915.094.271-.332.4-.426.131-1.353-3.892.481-7.947-.086-11.914a6.1,6.1,0,0,0-2.758-4.6,15.787,15.787,0,0,0-4.811-1.368,10.491,10.491,0,0,1-4.614-2.086,15.849,15.849,0,0,1-3.416-4.125,38.623,38.623,0,0,1-4.487-11.206,40.514,40.514,0,0,1-.81-13.737C369.357,504.907,369.79,505.011,369.758,505.294Z" transform="translate(-343.429 -428.387)" fill="#fff"/>
    <path id="Path_1251" data-name="Path 1251" d="M363.145,586.269a5.972,5.972,0,0,1-7.327-2.474c-.147-.246.229-.486.376-.239a5.53,5.53,0,0,0,6.821,2.288C363.281,585.736,363.41,586.162,363.145,586.269Z" transform="translate(-333.392 -487.631)" fill="#fff"/>
    <path id="Path_1252" data-name="Path 1252" d="M420.655,604.071a11.511,11.511,0,0,0,.359-8.381c-.093-.271.333-.4.426-.131a11.973,11.973,0,0,1-.391,8.721C420.932,604.542,420.539,604.332,420.655,604.071Z" transform="translate(-382.378 -496.664)" fill="#fff"/>
    <path id="Path_1253" data-name="Path 1253" d="M371.009,537.4a3.381,3.381,0,0,0,2.519-1.986c.113-.264.506-.053.394.209a3.788,3.788,0,0,1-2.782,2.2.23.23,0,0,1-.278-.148A.224.224,0,0,1,371.009,537.4Z" transform="translate(-344.773 -451.252)" fill="#fff"/>
    <path id="Path_1254" data-name="Path 1254" d="M389.432,337.74c-8.113-7.986-11.539-16.318-9.648-23.461,2.427-9.166,13.206-15.5,29.575-17.387l.06.526c-16.141,1.858-26.756,8.053-29.124,17-1.84,6.951,1.537,15.1,9.508,22.948Z" transform="translate(-351.137 -271.167)" fill="#f0f0f0"/>
    <path id="Path_1255" data-name="Path 1255" d="M531.131,516.608a127,127,0,0,1-32.057-4.4c-13.515-3.578-25.907-8.979-35.836-15.618l.294-.44c9.881,6.607,22.218,11.983,35.677,15.546a123.667,123.667,0,0,0,35.433,4.318l.019.529Q532.916,516.608,531.131,516.608Z" transform="translate(-414.56 -421.686)" fill="#f0f0f0"/>
    <path id="Path_1256" data-name="Path 1256" d="M714.455,374.583l-.169-.5c9.056-3.062,14.72-7.994,16.38-14.264,2.11-7.97-2.474-17.22-12.908-26.044-10.487-8.869-25.609-16.228-42.582-20.721l.135-.512c17.047,4.513,32.243,11.91,42.788,20.829,10.6,8.963,15.243,18.4,13.078,26.583C729.469,366.4,723.686,371.462,714.455,374.583Z" transform="translate(-574.656 -282.988)" fill="#f0f0f0"/>
    <path id="Path_1257" data-name="Path 1257" d="M362.508,480.232c-19.9-8.824-35.227-20.272-43.169-32.235l.441-.293c7.887,11.88,23.138,23.261,42.942,32.044Z" transform="translate(-305.861 -385.089)" fill="#f0f0f0"/>
    <path id="Path_1258" data-name="Path 1258" d="M762.452,624.19q-3.078,0-6.262-.137l.023-.529c15.838.686,29.811-1.21,40.413-5.482l.2.491C787.576,622.259,775.788,624.19,762.452,624.19Z" transform="translate(-635.854 -513.76)" fill="#f0f0f0"/>
    <path id="Path_1259" data-name="Path 1259" d="M532.509,269.82c-3.288-1.071-6.671-2.068-10.053-2.963-19.464-5.153-38.6-6.982-55.334-5.29l-.053-.527c16.8-1.7,36,.136,55.522,5.3,3.392.9,6.784,1.9,10.082,2.971Z" transform="translate(-417.455 -243.621)" fill="#f0f0f0"/>
    <path id="Path_1260" data-name="Path 1260" d="M338.6,340.984c-8.113-7.986-11.539-16.318-9.648-23.461,2.427-9.166,13.206-15.5,29.575-17.387l.06.526c-16.141,1.858-26.756,8.053-29.124,17-1.84,6.951,1.537,15.1,9.508,22.948Z" transform="translate(-312.738 -273.618)" fill="#f0f0f0"/>
    <path id="Path_1261" data-name="Path 1261" d="M480.3,519.853a127,127,0,0,1-32.057-4.4c-13.515-3.578-25.907-8.978-35.836-15.618l.294-.44c9.881,6.607,22.218,11.983,35.678,15.546a123.672,123.672,0,0,0,35.433,4.319l.019.529Q482.083,519.853,480.3,519.853Z" transform="translate(-376.162 -424.137)" fill="#f0f0f0"/>
    <path id="Path_1262" data-name="Path 1262" d="M663.622,377.827l-.169-.5c9.056-3.062,14.72-7.994,16.38-14.264,2.11-7.97-2.474-17.22-12.908-26.044-10.487-8.869-25.609-16.228-42.582-20.721l.135-.512c17.047,4.513,32.243,11.91,42.788,20.829,10.6,8.963,15.243,18.4,13.078,26.583C678.636,369.647,672.854,374.706,663.622,377.827Z" transform="translate(-536.257 -285.439)" fill="#f0f0f0"/>
    <path id="Path_1263" data-name="Path 1263" d="M311.675,483.476c-19.9-8.824-35.227-20.272-43.169-32.235l.441-.293c7.887,11.881,23.138,23.261,42.942,32.044Z" transform="translate(-267.463 -387.539)" fill="#f0f0f0"/>
    <path id="Path_1264" data-name="Path 1264" d="M711.619,627.435q-3.078,0-6.262-.137l.023-.529c15.837.686,29.811-1.21,40.413-5.482l.2.491C736.743,625.5,724.955,627.435,711.619,627.435Z" transform="translate(-597.456 -516.211)" fill="#f0f0f0"/>
    <path id="Path_1265" data-name="Path 1265" d="M481.676,273.065c-3.288-1.071-6.671-2.068-10.053-2.963-19.464-5.153-38.6-6.982-55.334-5.29l-.053-.527c16.8-1.7,36,.136,55.522,5.3,3.392.9,6.784,1.9,10.082,2.971Z" transform="translate(-379.056 -246.072)" fill="#f0f0f0"/>
    <path id="Path_1266" data-name="Path 1266" d="M450.8,462.691a4.105,4.105,0,0,0-4.1,4.1,192.691,192.691,0,0,0-1.556,34.648c.031.739.066,1.415.106,2.067.058,1.077.132,2.214.219,3.379.05.688.1,1.378.161,2.065.1,1.12.2,2.258.317,3.382.071.687.145,1.377.224,2.064.152,1.35.324,2.734.526,4.23a4.111,4.111,0,0,0,4.1,4.118h68.785a4.105,4.105,0,0,0,4.1-4.1l0-.028c.306-1.4.592-2.818.848-4.228.137-.743.256-1.418.362-2.064.193-1.175.365-2.312.51-3.38.1-.717.189-1.411.267-2.064.128-1.069.244-2.174.354-3.378.06-.654.116-1.33.169-2.066h0a120.282,120.282,0,0,0-2.511-34.616l0-.028a4.105,4.105,0,0,0-4.1-4.1Z" transform="translate(-400.742 -396.41)" fill="#3f3d56"/>
    <path id="Path_1267" data-name="Path 1267" d="M448.34,445.23c-14.9,0-30.7-1.354-51.366-4.064h0a4.35,4.35,0,0,1-4.319-3.882,3.991,3.991,0,0,1-.027-.483V424.368a.636.636,0,0,1,0-.08A4.375,4.375,0,0,1,396.99,420c35.96-4.889,57.8-4.889,97.373,0h0a4.374,4.374,0,0,1,4.345,4.3.477.477,0,0,1,0,.065V436.8a4.019,4.019,0,0,1-.027.484,4.356,4.356,0,0,1-4.338,3.881C477.252,443.876,463.24,445.23,448.34,445.23Z" transform="translate(-361.221 -361.394)" fill="#ecb61c"/>
    <path id="Path_1268" data-name="Path 1268" d="M588.835,441.5h-9.043a4.346,4.346,0,0,1-4.341-4.341V404.3a4.346,4.346,0,0,1,4.341-4.341h9.043a4.346,4.346,0,0,1,4.341,4.341v32.853a4.346,4.346,0,0,1-4.341,4.341Z" transform="translate(-499.325 -349.024)" fill="#3f3d56"/>
    <path id="Path_1269" data-name="Path 1269" d="M559.195,344.983a11.482,11.482,0,0,0-.345-1.823,11.815,11.815,0,0,0-.67-1.745,10.27,10.27,0,0,0-4.624-4.8,12.329,12.329,0,0,0-8.12-.745,16.048,16.048,0,0,0-6.273,2.937,16.314,16.314,0,0,0-2.616,2.467,32,32,0,0,0-2.406,3.858,16.061,16.061,0,0,0-3.57-5.106,16.781,16.781,0,0,0-6.148-3.716,15.49,15.49,0,0,0-3.768-.766,11.993,11.993,0,0,0-4.042.353,10.184,10.184,0,0,0-5.764,4.213,10.629,10.629,0,0,0-1.8,6.483,10.906,10.906,0,0,0,.741,3.385,12.914,12.914,0,0,0,.81,1.7,13.217,13.217,0,0,0,1.077,1.543,12.2,12.2,0,0,0,5.994,3.991,17.839,17.839,0,0,0,7.764.437,36.531,36.531,0,0,0,7.708-2.175c.334-.125.666-.255,1-.383a48.938,48.938,0,0,0,6.789,2.2,20.443,20.443,0,0,0,7.992.32,12.824,12.824,0,0,0,6.627-3.237,11.9,11.9,0,0,0,3.433-5.962,10.29,10.29,0,0,0,.212-3.433Zm-34.451,10.111a17.82,17.82,0,0,1-4.322.025,13.418,13.418,0,0,1-3.006-.8,9.45,9.45,0,0,1-5.064-5.028,10.116,10.116,0,0,1-.613-2.228,9.221,9.221,0,0,1,0-2.044,9.621,9.621,0,0,1,.575-2.086,9.837,9.837,0,0,1,1.079-1.847,9.276,9.276,0,0,1,1.392-1.4,8.478,8.478,0,0,1,1.559-.914,9.531,9.531,0,0,1,2.039-.545,12.066,12.066,0,0,1,2.843.022,14.7,14.7,0,0,1,3.274.9,15.454,15.454,0,0,1,3.153,1.838,15.139,15.139,0,0,1,2.436,2.429,14.931,14.931,0,0,1,1.774,3.055,15.474,15.474,0,0,1,.953,3.521l0,.018a16.025,16.025,0,0,0-.1,1.827c0,.235.011.47.023.7a1.405,1.405,0,0,0-.276.371,44.451,44.451,0,0,1-5.654,1.793Q525.784,354.945,524.744,355.094Zm31.8-8.031a10.115,10.115,0,0,1-.613,2.228,9.4,9.4,0,0,1-5.064,5.028,13.417,13.417,0,0,1-3.006.8,17.822,17.822,0,0,1-4.33-.026,35.885,35.885,0,0,1-7.423-2.07l-.3-.113a1.381,1.381,0,0,0-.264-.367,15.851,15.851,0,0,0-.079-2.553,15.477,15.477,0,0,1,.952-3.514,14.938,14.938,0,0,1,1.774-3.055,15.137,15.137,0,0,1,2.437-2.429,15.454,15.454,0,0,1,3.153-1.838,14.7,14.7,0,0,1,3.274-.9,12.065,12.065,0,0,1,2.843-.022,9.532,9.532,0,0,1,2.039.545,8.475,8.475,0,0,1,1.559.914,9.272,9.272,0,0,1,1.392,1.4,9.826,9.826,0,0,1,1.079,1.847,9.618,9.618,0,0,1,.575,2.086,9.221,9.221,0,0,1,0,2.044Z" transform="translate(-449.154 -300.332)" fill="#3f3d56"/>
    <circle id="Ellipse_35" data-name="Ellipse 35" cx="1.587" cy="1.587" r="1.587" transform="translate(55.876 90.753)" fill="#f2c335"/>
    <circle id="Ellipse_36" data-name="Ellipse 36" cx="1.587" cy="1.587" r="1.587" transform="translate(67.252 86.785)" fill="#f2c335"/>
    <circle id="Ellipse_37" data-name="Ellipse 37" cx="1.587" cy="1.587" r="1.587" transform="translate(62.226 99.219)" fill="#f2c335"/>
    <circle id="Ellipse_38" data-name="Ellipse 38" cx="1.587" cy="1.587" r="1.587" transform="translate(109.317 90.753)" fill="#f2c335"/>
    <circle id="Ellipse_39" data-name="Ellipse 39" cx="1.587" cy="1.587" r="1.587" transform="translate(97.941 86.785)" fill="#f2c335"/>
    <circle id="Ellipse_40" data-name="Ellipse 40" cx="1.587" cy="1.587" r="1.587" transform="translate(102.967 99.219)" fill="#f2c335"/>
    <circle id="Ellipse_41" data-name="Ellipse 41" cx="1.587" cy="1.587" r="1.587" transform="translate(110.64 118.531)" fill="#f2c335"/>
    <circle id="Ellipse_42" data-name="Ellipse 42" cx="1.587" cy="1.587" r="1.587" transform="translate(114.608 107.155)" fill="#f2c335"/>
    <circle id="Ellipse_43" data-name="Ellipse 43" cx="1.587" cy="1.587" r="1.587" transform="translate(102.174 112.182)" fill="#f2c335"/>
    <circle id="Ellipse_44" data-name="Ellipse 44" cx="1.587" cy="1.587" r="1.587" transform="translate(65.136 118.531)" fill="#f2c335"/>
    <circle id="Ellipse_45" data-name="Ellipse 45" cx="1.587" cy="1.587" r="1.587" transform="translate(69.104 107.155)" fill="#f2c335"/>
    <circle id="Ellipse_46" data-name="Ellipse 46" cx="1.587" cy="1.587" r="1.587" transform="translate(56.67 112.182)" fill="#f2c335"/>
    <path id="Path_2961" data-name="Path 2961" d="M687.936,201.321a3.793,3.793,0,0,0,3.693-.434c1.342-1,1.846-2.749,2.267-4.369l1.245-4.794-2.1,1.277a14.768,14.768,0,0,0-4.151,3.26,5.007,5.007,0,0,0-.925,4.964" transform="translate(-584.07 -191.724)" fill="#f2f2f2"/>
    <path id="Path_2961-2" data-name="Path 2961" d="M436.5,368.851a3.793,3.793,0,0,0,.594-3.671c-.6-1.565-2.138-2.528-3.581-3.377l-4.27-2.511.652,2.372a14.767,14.767,0,0,0,2,4.885,5.007,5.007,0,0,0,4.521,2.249" transform="translate(-388.882 -318.303)" fill="#f2f2f2"/>
    <path id="Path_2961-3" data-name="Path 2961" d="M846.406,670.6a3.793,3.793,0,0,0,.594-3.671c-.6-1.565-2.138-2.528-3.581-3.377l-4.27-2.511.652,2.372a14.767,14.767,0,0,0,2,4.885,5.006,5.006,0,0,0,4.521,2.249" transform="translate(-698.52 -546.243)" fill="#f2f2f2"/>
    <circle id="Ellipse_47" data-name="Ellipse 47" cx="2.116" cy="2.116" r="2.116" transform="translate(65.136 26.465)" fill="#fd6584"/>
    <circle id="Ellipse_48" data-name="Ellipse 48" cx="2.116" cy="2.116" r="2.116" transform="translate(8.785 88.901)" fill="#fd6584"/>
    <circle id="Ellipse_49" data-name="Ellipse 49" cx="2.116" cy="2.116" r="2.116" transform="translate(154.292 71.705)" fill="#fd6584"/>
    <circle id="Ellipse_50" data-name="Ellipse 50" cx="2.116" cy="2.116" r="2.116" transform="translate(6.669 35.725)" fill="#e6e6e6"/>
    <circle id="Ellipse_51" data-name="Ellipse 51" cx="2.116" cy="2.116" r="2.116" transform="translate(137.624 96.044)" fill="#e6e6e6"/>
    <circle id="Ellipse_52" data-name="Ellipse 52" cx="2.116" cy="2.116" r="2.116" transform="translate(141.857 31.757)" fill="#e6e6e6"/>
    <path id="Path_1270" data-name="Path 1270" d="M460.311,464.139a.631.631,0,0,1-.876.066.7.7,0,0,1,0-1.021c.757-.908,2.008.051,2.177.953a2.27,2.27,0,0,1-1.068,2.26,2.443,2.443,0,0,1-2.727-.357,2.949,2.949,0,0,1,.593-4.759,4.125,4.125,0,0,1,3.567.163,29.708,29.708,0,0,1,3.39,2.119,18.9,18.9,0,0,0,8.164,2.788c.508.052.5-.742,0-.794a18.158,18.158,0,0,1-4.691-1.13,20.617,20.617,0,0,1-4.215-2.314,9.369,9.369,0,0,0-4.351-1.941,3.774,3.774,0,0,0-3.479,1.514,3.855,3.855,0,0,0-.579,3.381,3.57,3.57,0,0,0,2.721,2.343,2.918,2.918,0,0,0,3.076-1.421,2.707,2.707,0,0,0-.328-3.313,2.105,2.105,0,0,0-2.047-.557,1.8,1.8,0,0,0-1.218,1.55,1.424,1.424,0,0,0,2.572.87c.274-.433-.413-.832-.685-.4Z" transform="translate(-409.137 -394.489)" fill="#3f3d56"/>
    <path id="Path_1271" data-name="Path 1271" d="M708.9,464.139a.631.631,0,0,0,.876.066.7.7,0,0,0,0-1.021c-.757-.908-2.009.051-2.177.953a2.27,2.27,0,0,0,1.068,2.26,2.443,2.443,0,0,0,2.727-.357,2.949,2.949,0,0,0-.593-4.759,4.125,4.125,0,0,0-3.567.163,29.709,29.709,0,0,0-3.39,2.119,18.9,18.9,0,0,1-8.164,2.788c-.508.052-.5-.742,0-.794a18.159,18.159,0,0,0,4.691-1.13,20.616,20.616,0,0,0,4.215-2.314,9.37,9.37,0,0,1,4.351-1.941,3.774,3.774,0,0,1,3.479,1.514,3.854,3.854,0,0,1,.579,3.381,3.57,3.57,0,0,1-2.721,2.343,2.918,2.918,0,0,1-3.076-1.421,2.707,2.707,0,0,1,.328-3.313,2.105,2.105,0,0,1,2.047-.557,1.8,1.8,0,0,1,1.218,1.55,1.424,1.424,0,0,1-2.572.87c-.274-.433.413-.832.685-.4Z" transform="translate(-589.856 -394.489)" fill="#3f3d56"/>
    <path id="Path_1272" data-name="Path 1272" d="M81.608,32.555,80.56,33.87l-3.708-2.193L77.9,30.362Z" transform="translate(-58.053 -22.935)" fill="#e4e4e4"/>
    <path id="Path_1273" data-name="Path 1273" d="M100.082,62.43l.926,1.382-3.895,1.937-.926-1.382Z" transform="translate(-72.659 -47.159)" fill="#e4e4e4"/>
    <path id="Path_1274" data-name="Path 1274" d="M128.023,37.872l1.85.066-.184,3.871-1.85-.065Z" transform="translate(-96.568 -28.608)" fill="#e4e4e4"/>
    <path id="Path_1275" data-name="Path 1275" d="M616.973,363.508l-1.048,1.315-3.708-2.193,1.048-1.315Z" transform="translate(-462.462 -272.934)" fill="#e4e4e4"/>
    <path id="Path_1276" data-name="Path 1276" d="M635.447,393.383l.926,1.382-3.9,1.937-.926-1.382Z" transform="translate(-477.068 -297.157)" fill="#e4e4e4"/>
    <path id="Path_1277" data-name="Path 1277" d="M663.388,368.825l1.85.066-.184,3.871-1.85-.065Z" transform="translate(-500.977 -278.607)" fill="#e4e4e4"/>
  </g>
</svg>
